#define error_width 19
#define error_height 19
static unsigned char error_bits[] = {
    0xf0, 0x7f, 0x00, 0xfc, 0xff, 0x01, 0xfe, 0xff, 0x03, 0xfe, 0xf8, 0x03,
    0xff, 0xf8, 0x07, 0xff, 0xf8, 0x07, 0xff, 0xf8, 0x07, 0xff, 0xf8, 0x07,
    0xff, 0xf8, 0x07, 0xff, 0xf8, 0x07, 0xff, 0xf8, 0x07, 0xff, 0xff, 0x07,
    0xff, 0xff, 0x07, 0xff, 0xf8, 0x07, 0xff, 0xf8, 0x07, 0xfe, 0xf8, 0x03,
    0xfe, 0xff, 0x03, 0xfc, 0xff, 0x01, 0xf0, 0x7f, 0x00
};
