#define hotspot_width 16
#define hotspot_height 16
static unsigned char hotspot_bits[] = {
    0xfe, 0x7f, 0xff, 0xff, 0x03, 0xc0, 0x03, 0xc0, 0x33, 0xcc, 0x33, 0xcc,
    0x33, 0xcc, 0xf3, 0xcf, 0xf3, 0xcf, 0x33, 0xcc, 0x33, 0xcc, 0x33, 0xcc,
    0x03, 0xc0, 0x03, 0xc0, 0xff, 0xff, 0xfe, 0x7f
};
