#define ip_address_width 9
#define ip_address_height 9
static unsigned char ip_address_bits[] = {
    0xff, 0x01, 0x01, 0x01, 0x01, 0x01, 0x01, 0x01, 0x01, 0x01, 0xff, 0x01,
    0x10, 0x00, 0x10, 0x00, 0x7c, 0x00
};
