#define l_per_min_width 21
#define l_per_min_height 19
static unsigned char l_per_min_bits[] = {
    0x00, 0x06, 0x00, 0x00, 0x04, 0x00, 0x00, 0x04, 0x00, 0x00, 0x04, 0x00,
    0x00, 0x04, 0x00, 0x00, 0x0e, 0x00, 0x00, 0x00, 0x00, 0x00, 0x00, 0x00,
    0x00, 0x00, 0x00, 0xff, 0xff, 0x1f, 0x00, 0x00, 0x00, 0x00, 0x00, 0x00,
    0x00, 0x04, 0x00, 0x00, 0x00, 0x00, 0x2c, 0x46, 0x03, 0x54, 0xc4, 0x04,
    0x54, 0x44, 0x04, 0x54, 0x44, 0x04, 0x54, 0x4e, 0x04
};
