#define splashscreen_width 128
#define splashscreen_height 64
static unsigned char splashscreen_bits[] = {
    0x00, 0x00, 0x00, 0x00, 0x00, 0x00, 0x00, 0x00, 0x00, 0x00, 0x00, 0x00,
    0x00, 0x00, 0x00, 0x00, 0x00, 0x00, 0x00, 0x00, 0x00, 0x00, 0x00, 0x00,
    0x00, 0x00, 0x00, 0x00, 0x00, 0x00, 0x00, 0x00, 0x00, 0x00, 0x00, 0x00,
    0x00, 0x00, 0x00, 0x00, 0x00, 0x00, 0x00, 0x00, 0x00, 0x00, 0x00, 0x00,
    0x00, 0x00, 0x00, 0x00, 0x00, 0x00, 0x00, 0x00, 0x00, 0x00, 0x00, 0x00,
    0x00, 0x00, 0x00, 0x00, 0x00, 0x00, 0x00, 0x00, 0x00, 0x00, 0x00, 0x00,
    0x00, 0x00, 0x00, 0x00, 0x00, 0x00, 0x00, 0x00, 0x00, 0x00, 0x00, 0x00,
    0x00, 0x00, 0x00, 0x00, 0x00, 0x00, 0x00, 0x00, 0x00, 0x00, 0x00, 0x00,
    0x00, 0x00, 0x00, 0x00, 0x00, 0x00, 0x00, 0x00, 0x00, 0x00, 0x00, 0x00,
    0x00, 0x00, 0x00, 0x00, 0x00, 0x00, 0x00, 0xfc, 0x01, 0x00, 0x00, 0x00,
    0x00, 0x00, 0x00, 0x00, 0x00, 0x00, 0x00, 0x00, 0x00, 0x00, 0x80, 0xff,
    0x0f, 0x00, 0x00, 0x00, 0x00, 0x00, 0x00, 0x00, 0x00, 0x00, 0x00, 0x00,
    0x00, 0x00, 0xf0, 0x8f, 0x7f, 0x00, 0x00, 0x00, 0x00, 0x00, 0x00, 0x00,
    0x00, 0x00, 0x00, 0x00, 0x00, 0xf0, 0xff, 0x00, 0xf8, 0x7f, 0x00, 0x00,
    0x00, 0x00, 0x00, 0x00, 0x00, 0x00, 0x00, 0x00, 0x00, 0xf8, 0x3f, 0x00,
    0xe0, 0xff, 0x00, 0x30, 0xf0, 0x03, 0x1e, 0xc6, 0x01, 0x00, 0x00, 0x00,
    0x00, 0xf8, 0x03, 0x00, 0x00, 0xfe, 0x00, 0x78, 0xf8, 0x07, 0x3f, 0xcf,
    0x03, 0x00, 0x00, 0x00, 0x00, 0x18, 0x00, 0x20, 0x00, 0xe0, 0x00, 0x78,
    0xf8, 0x87, 0x3f, 0xef, 0x03, 0x00, 0x00, 0x00, 0x00, 0x18, 0x00, 0x20,
    0x00, 0xe0, 0x00, 0x7c, 0xfc, 0xc3, 0x7f, 0xef, 0x01, 0x00, 0x00, 0x00,
    0x00, 0x18, 0x00, 0x70, 0x00, 0xe0, 0x00, 0x3c, 0x3c, 0xc0, 0x73, 0xff,
    0x01, 0x00, 0x00, 0x00, 0x00, 0x18, 0x00, 0xf0, 0x00, 0xe0, 0x00, 0x3c,
    0xfc, 0xe1, 0x71, 0xff, 0x00, 0x00, 0x00, 0x00, 0x00, 0x18, 0x00, 0xf8,
    0x00, 0xe0, 0x00, 0x1e, 0xfe, 0xe1, 0x77, 0xfe, 0x01, 0x00, 0x00, 0x00,
    0x00, 0x18, 0x00, 0xf8, 0x00, 0xe0, 0x00, 0x1e, 0xfe, 0xf0, 0x7f, 0xfe,
    0x01, 0x00, 0x00, 0x00, 0x00, 0x18, 0x00, 0x70, 0x00, 0xe0, 0x00, 0x7e,
    0x1e, 0xf0, 0x7f, 0xfe, 0x03, 0x00, 0x00, 0x00, 0x00, 0x18, 0x00, 0x00,
    0x00, 0xe0, 0x00, 0xfe, 0xfe, 0xf3, 0x7c, 0xde, 0x03, 0x00, 0x00, 0x00,
    0x00, 0x18, 0x00, 0x00, 0x00, 0xe0, 0x00, 0xfe, 0xfe, 0x63, 0x78, 0xde,
    0x03, 0x00, 0x00, 0x00, 0x00, 0x18, 0x00, 0x20, 0x00, 0xe0, 0x00, 0x7c,
    0xfc, 0x01, 0x30, 0x8c, 0x01, 0x00, 0x00, 0x00, 0x00, 0x18, 0x00, 0x70,
    0x00, 0xe0, 0x00, 0x00, 0x00, 0x00, 0x00, 0x00, 0x00, 0x00, 0x00, 0x00,
    0x00, 0x18, 0x00, 0xf0, 0x00, 0xe0, 0x00, 0x00, 0x00, 0x00, 0x00, 0x00,
    0x00, 0x00, 0x00, 0x00, 0x00, 0x18, 0x00, 0xf8, 0x00, 0xe0, 0x00, 0x00,
    0x00, 0x00, 0x00, 0x00, 0x00, 0x00, 0x00, 0x00, 0x00, 0x18, 0x00, 0xfc,
    0x01, 0xe0, 0x00, 0xf0, 0xe1, 0x00, 0xe0, 0x81, 0x1f, 0x7e, 0x00, 0x00,
    0x00, 0x18, 0x00, 0xfe, 0x03, 0xe0, 0x00, 0xfc, 0xe3, 0x19, 0xf0, 0xc3,
    0x3f, 0xff, 0x01, 0x00, 0x00, 0x18, 0x00, 0xff, 0x07, 0xe0, 0x00, 0xfe,
    0xf3, 0x3d, 0xf8, 0xc3, 0x7f, 0xff, 0x03, 0x00, 0x00, 0x18, 0x80, 0xff,
    0x0f, 0xe0, 0x00, 0xfe, 0xf1, 0x3d, 0xfc, 0xe7, 0x79, 0xff, 0x03, 0x00,
    0x00, 0x18, 0x80, 0xff, 0x0f, 0xe0, 0x00, 0x1f, 0xf0, 0x7c, 0x3c, 0xe7,
    0x78, 0xcf, 0x07, 0x00, 0x00, 0x18, 0xc0, 0xff, 0x1f, 0xe0, 0x00, 0xcf,
    0xf3, 0x78, 0x1e, 0xe7, 0x7c, 0x8f, 0x07, 0x00, 0x00, 0x18, 0xc0, 0xff,
    0x1f, 0xe0, 0x00, 0xef, 0xf7, 0x78, 0x7e, 0xf7, 0x3f, 0x8f, 0x07, 0x00,
    0x00, 0x38, 0xe0, 0xff, 0x1f, 0xe0, 0x00, 0xef, 0xf7, 0x7d, 0xff, 0xf7,
    0x1f, 0xdf, 0x07, 0x00, 0x00, 0x38, 0xe0, 0xff, 0x3f, 0xe0, 0x00, 0x9f,
    0xf7, 0x7f, 0xff, 0xf7, 0x3f, 0xfe, 0x07, 0x00, 0x00, 0x38, 0xe0, 0xff,
    0x3f, 0xe0, 0x00, 0xfe, 0xe3, 0x3f, 0xcf, 0xf7, 0x7e, 0xfe, 0x07, 0x00,
    0x00, 0x38, 0xe0, 0xff, 0xfb, 0x73, 0x00, 0xfe, 0xe3, 0x3f, 0x86, 0xf7,
    0x7c, 0xfe, 0x03, 0x00, 0x00, 0xf0, 0xef, 0x7f, 0xfc, 0x7f, 0x00, 0xf8,
    0xc0, 0x1f, 0x00, 0x63, 0x38, 0xfe, 0x01, 0x00, 0x00, 0xf0, 0xff, 0x3f,
    0x1f, 0x7e, 0x00, 0x00, 0x00, 0x00, 0x00, 0x00, 0x00, 0x00, 0x00, 0x00,
    0x00, 0xf0, 0xfe, 0xc7, 0x03, 0x38, 0x00, 0x00, 0x00, 0x00, 0x00, 0x00,
    0x00, 0x00, 0x00, 0x00, 0x00, 0xe0, 0xf0, 0xff, 0x00, 0x38, 0x00, 0x00,
    0x00, 0x00, 0x00, 0x00, 0x00, 0x00, 0x00, 0x00, 0x00, 0xc0, 0xc1, 0x3f,
    0x00, 0x1c, 0x00, 0x00, 0x00, 0x00, 0x00, 0x00, 0x00, 0x00, 0x00, 0x00,
    0x00, 0xc0, 0x03, 0x00, 0x00, 0x1e, 0x00, 0x00, 0x00, 0x00, 0x00, 0x00,
    0x00, 0x00, 0x00, 0x00, 0x00, 0x80, 0x03, 0x00, 0x00, 0x0f, 0x00, 0x00,
    0x00, 0x00, 0x00, 0x00, 0x00, 0x00, 0x00, 0x00, 0x00, 0x00, 0x07, 0x00,
    0x00, 0x07, 0x00, 0x00, 0x00, 0x00, 0x00, 0x00, 0x00, 0x00, 0x00, 0x00,
    0x00, 0x00, 0x0f, 0x00, 0x80, 0x03, 0x00, 0x00, 0x00, 0x00, 0x00, 0x00,
    0x00, 0x00, 0x00, 0x00, 0x00, 0x00, 0x1e, 0x00, 0xc0, 0x03, 0x00, 0x1f,
    0x20, 0x42, 0x80, 0x21, 0x40, 0x00, 0x00, 0x00, 0x00, 0x00, 0x7c, 0x00,
    0xf0, 0x01, 0x00, 0x04, 0x00, 0x02, 0x00, 0x01, 0x00, 0x00, 0x00, 0x00,
    0x00, 0x00, 0xf8, 0x00, 0xf8, 0x00, 0x00, 0x44, 0x33, 0x67, 0x1c, 0x31,
    0x6f, 0x1a, 0x07, 0x00, 0x00, 0x00, 0xf0, 0x01, 0x3c, 0x00, 0x00, 0xc4,
    0x24, 0x42, 0x20, 0x21, 0x48, 0xa6, 0x08, 0x00, 0x00, 0x00, 0xc0, 0x07,
    0x1f, 0x00, 0x00, 0x44, 0x24, 0x42, 0x3c, 0x21, 0x44, 0xa2, 0x08, 0x00,
    0x00, 0x00, 0x80, 0xdf, 0x0f, 0x00, 0x00, 0x44, 0x24, 0x4a, 0x22, 0x21,
    0x42, 0xa2, 0x08, 0x00, 0x00, 0x00, 0x00, 0xfe, 0x03, 0x00, 0x00, 0x5f,
    0x74, 0xe4, 0x3c, 0x76, 0xef, 0x22, 0xaf, 0x02, 0x00, 0x00, 0x00, 0xfc,
    0x01, 0x00, 0x00, 0x00, 0x00, 0x00, 0x00, 0x00, 0x00, 0x00, 0x08, 0x00,
    0x00, 0x00, 0x00, 0x70, 0x00, 0x00, 0x00, 0x00, 0x00, 0x00, 0x00, 0x00,
    0x00, 0x00, 0x0e, 0x00, 0x00, 0x00, 0x00, 0x00, 0x00, 0x00, 0x00, 0x00,
    0x00, 0x00, 0x00, 0x00, 0x00, 0x00, 0x00, 0x00, 0x00, 0x00, 0x00, 0x00,
    0x00, 0x00, 0x00, 0x00, 0x00, 0x00, 0x00, 0x00, 0x00, 0x00, 0x00, 0x00,
    0x00, 0x00, 0x00, 0x00, 0x00, 0x00, 0x00, 0x00, 0x00, 0x00, 0x00, 0x00,
    0x00, 0x00, 0x00, 0x00, 0x00, 0x00, 0x00, 0x00, 0x00, 0x00, 0x00, 0x00,
    0x00, 0x00, 0x00, 0x00, 0x00, 0x00, 0x00, 0x00, 0x00, 0x00, 0x00, 0x00,
    0x00, 0x00, 0x00, 0x00, 0x00, 0x00, 0x00, 0x00, 0x00, 0x00, 0x00, 0x00,
    0x00, 0x00, 0x00, 0x00, 0x00, 0x00, 0x00, 0x00, 0x00, 0x00, 0x00, 0x00,
    0x00, 0x00, 0x00, 0x00, 0x00, 0x00, 0x00, 0x00, 0x00, 0x00, 0x00, 0x00,
    0x00, 0x00, 0x00, 0x00, 0x00, 0x00, 0x00, 0x00, 0x00, 0x00, 0x00, 0x00,
    0x00, 0x00, 0x00, 0x00, 0x00, 0x00, 0x00, 0x00, 0x00, 0x00, 0x00, 0x00,
    0x00, 0x00, 0x00, 0x00, 0x00, 0x00, 0x00, 0x00, 0x00, 0x00, 0x00, 0x00,
    0x00, 0x00, 0x00, 0x00
};
