#define total_flow_width 9
#define total_flow_height 9
static unsigned char total_flow_bits[] = {
    0x10, 0x00, 0x38, 0x00, 0x38, 0x00, 0x7c, 0x00, 0x74, 0x00, 0xf6, 0x00,
    0xfe, 0x00, 0x7c, 0x00, 0x38, 0x00
};
