#define wateranim_1_width 19
#define wateranim_1_height 19
static unsigned char wateranim_1_bits[] = {
    0xf0, 0x7f, 0x00, 0x28, 0xe0, 0x00, 0x44, 0xf0, 0x01, 0x42, 0xf0, 0x03,
    0x81, 0xf8, 0x07, 0x83, 0xf8, 0x07, 0x0d, 0xfd, 0x05, 0x31, 0x7d, 0x04,
    0xc1, 0x1e, 0x04, 0x01, 0x07, 0x04, 0xc1, 0x1b, 0x04, 0xf1, 0x65, 0x04,
    0xfd, 0x85, 0x05, 0xff, 0x08, 0x06, 0xff, 0x08, 0x04, 0x7e, 0x10, 0x02,
    0x7c, 0x10, 0x01, 0x38, 0xa0, 0x00, 0xf0, 0x7f, 0x00
};
