#define wateranim_no_width 19
#define wateranim_no_height 19
static unsigned char wateranim_no_bits[] = {
    0xf0, 0x7f, 0x00, 0x28, 0xa0, 0x00, 0x44, 0x10, 0x01, 0x42, 0x10, 0x02,
    0x81, 0x08, 0x04, 0x83, 0x08, 0x06, 0x0d, 0x85, 0x05, 0x31, 0x65, 0x04,
    0xc1, 0x1a, 0x04, 0x01, 0x05, 0x04, 0xc1, 0x1a, 0x04, 0x31, 0x65, 0x04,
    0x0d, 0x85, 0x05, 0x83, 0x08, 0x06, 0x81, 0x08, 0x04, 0x42, 0x10, 0x02,
    0x44, 0x10, 0x01, 0x28, 0xa0, 0x00, 0xf0, 0x7f, 0x00
};
