#define wateranim_0_width 19
#define wateranim_0_height 19
static unsigned char wateranim_0_bits[] = {
    0xf0, 0x7f, 0x00, 0xe8, 0xbf, 0x00, 0xc4, 0x1f, 0x01, 0xc2, 0x1f, 0x02,
    0x81, 0x0f, 0x04, 0x83, 0x0f, 0x06, 0x0d, 0x87, 0x05, 0x31, 0x67, 0x04,
    0xc1, 0x1a, 0x04, 0x01, 0x07, 0x04, 0xc1, 0x1a, 0x04, 0x31, 0x67, 0x04,
    0x0d, 0x87, 0x05, 0x83, 0x0f, 0x06, 0x81, 0x0f, 0x04, 0xc2, 0x1f, 0x02,
    0xc4, 0x1f, 0x01, 0xe8, 0xbf, 0x00, 0xf0, 0x7f, 0x00
};
