#define water_alarm_width 19
#define water_alarm_height 19
static unsigned char water_alarm_bits[] = {
    0x00, 0x00, 0x00, 0x00, 0x02, 0x00, 0x00, 0x07, 0x00, 0x00, 0x07, 0x00,
    0x80, 0x0f, 0x00, 0x80, 0x0f, 0x00, 0xc0, 0x1f, 0x00, 0xc0, 0x18, 0x00,
    0xe0, 0x38, 0x00, 0xe0, 0x38, 0x00, 0xf0, 0x78, 0x00, 0xf0, 0x78, 0x00,
    0xf8, 0xff, 0x00, 0xf8, 0xff, 0x00, 0xfc, 0xf8, 0x01, 0xfc, 0xf8, 0x01,
    0xfe, 0xff, 0x03, 0xfe, 0xff, 0x03, 0x00, 0x00, 0x00
};
