#define water_blocked_width 19
#define water_blocked_height 19
static unsigned char water_blocked_bits[] = {
    0xc0, 0x1f, 0x00, 0xf0, 0x7f, 0x00, 0x30, 0x60, 0x00, 0x30, 0x60, 0x00,
    0x30, 0x60, 0x00, 0x30, 0x60, 0x00, 0x30, 0x60, 0x00, 0xfc, 0xff, 0x01,
    0xfe, 0xff, 0x03, 0xfe, 0xff, 0x03, 0xfe, 0xff, 0x03, 0xfe, 0xf8, 0x03,
    0xfe, 0xf8, 0x03, 0xfe, 0xfb, 0x03, 0xfe, 0xfb, 0x03, 0xfe, 0xff, 0x03,
    0xfe, 0xff, 0x03, 0xfe, 0xff, 0x03, 0xfc, 0xff, 0x01
};
