#define wateranim_2_width 19
#define wateranim_2_height 19
static unsigned char wateranim_2_bits[] = {
    0xf0, 0x7f, 0x00, 0x28, 0xa0, 0x00, 0x44, 0x10, 0x01, 0x42, 0x10, 0x02,
    0x81, 0x08, 0x04, 0x83, 0x08, 0x06, 0x0f, 0x85, 0x07, 0x3f, 0xe5, 0x07,
    0xff, 0xfa, 0x07, 0xff, 0xff, 0x07, 0xff, 0xfa, 0x07, 0x3f, 0xe5, 0x07,
    0x0f, 0x85, 0x07, 0x83, 0x08, 0x06, 0x81, 0x08, 0x04, 0x42, 0x10, 0x02,
    0x44, 0x10, 0x01, 0x28, 0xa0, 0x00, 0xf0, 0x7f, 0x00
};
