#define wifi_sig3_width 17
#define wifi_sig3_height 17
static unsigned char wifi_sig3_bits[] = {
    0x2b, 0x80, 0x01, 0x2b, 0x40, 0x01, 0x28, 0x20, 0x01, 0x27, 0x10, 0x01,
    0x10, 0x18, 0x01, 0x0f, 0x1c, 0x01, 0x00, 0x1e, 0x01, 0x00, 0x1f, 0x01,
    0x80, 0x1f, 0x01, 0xc0, 0x1f, 0x01, 0xe0, 0x1f, 0x01, 0xf0, 0x1f, 0x01,
    0xf8, 0x1f, 0x01, 0xfc, 0x1f, 0x01, 0xfe, 0x1f, 0x01, 0xff, 0x1f, 0x01,
    0xff, 0xff, 0x01
};
