#define wifi_sig1_width 17
#define wifi_sig1_height 17
static unsigned char wifi_sig1_bits[] = {
    0x2b, 0x80, 0x01, 0x2b, 0x40, 0x01, 0x28, 0x20, 0x01, 0x27, 0x10, 0x01,
    0x10, 0x08, 0x01, 0x0f, 0x04, 0x01, 0x00, 0x02, 0x01, 0x00, 0x01, 0x01,
    0x80, 0x00, 0x01, 0x40, 0x00, 0x01, 0x20, 0x00, 0x01, 0x10, 0x00, 0x01,
    0x18, 0x00, 0x01, 0x1c, 0x00, 0x01, 0x1e, 0x00, 0x01, 0x1f, 0x00, 0x01,
    0xff, 0xff, 0x01
};
