#define wifi_pass_width 12
#define wifi_pass_height 12
static unsigned char wifi_pass_bits[] = {
    0xf0, 0x00, 0xf8, 0x01, 0x0c, 0x03, 0x0c, 0x03, 0x0c, 0x03, 0xfe, 0x07,
    0xfe, 0x07, 0x9e, 0x07, 0x9e, 0x07, 0xbe, 0x07, 0xfe, 0x07, 0xfe, 0x07
};
