#define wifi_sig2_width 17
#define wifi_sig2_height 17
static unsigned char wifi_sig2_bits[] = {
    0x2b, 0x80, 0x01, 0x2b, 0x40, 0x01, 0x28, 0x20, 0x01, 0x27, 0x10, 0x01,
    0x10, 0x08, 0x01, 0x0f, 0x04, 0x01, 0x00, 0x02, 0x01, 0x00, 0x01, 0x01,
    0x80, 0x01, 0x01, 0xc0, 0x01, 0x01, 0xe0, 0x01, 0x01, 0xf0, 0x01, 0x01,
    0xf8, 0x01, 0x01, 0xfc, 0x01, 0x01, 0xfe, 0x01, 0x01, 0xff, 0x01, 0x01,
    0xff, 0xff, 0x01
};
