#define wifi_sig4_width 17
#define wifi_sig4_height 17
static unsigned char wifi_sig4_bits[] = {
    0x2b, 0x80, 0x01, 0x2b, 0xc0, 0x01, 0x28, 0xe0, 0x01, 0x27, 0xf0, 0x01,
    0x10, 0xf8, 0x01, 0x0f, 0xfc, 0x01, 0x00, 0xfe, 0x01, 0x00, 0xff, 0x01,
    0x80, 0xff, 0x01, 0xc0, 0xff, 0x01, 0xe0, 0xff, 0x01, 0xf0, 0xff, 0x01,
    0xf8, 0xff, 0x01, 0xfc, 0xff, 0x01, 0xfe, 0xff, 0x01, 0xff, 0xff, 0x01,
    0xff, 0xff, 0x01
};
