#define wifi_user_width 12
#define wifi_user_height 12
static unsigned char wifi_user_bits[] = {
    0xf0, 0x00, 0xf8, 0x01, 0xf8, 0x01, 0xf8, 0x01, 0xf8, 0x01, 0xf0, 0x00,
    0x00, 0x00, 0xf0, 0x00, 0xfc, 0x03, 0xfe, 0x07, 0xff, 0x0f, 0xff, 0x0f
};
