#define wifi_conn_width 17
#define wifi_conn_height 17
static unsigned char wifi_conn_bits[] = {
    0x2b, 0x00, 0x00, 0x2b, 0x00, 0x00, 0x28, 0x00, 0x00, 0x27, 0x00, 0x00,
    0x10, 0x00, 0x00, 0x0f, 0x00, 0x00, 0x00, 0x00, 0x00, 0x00, 0x00, 0x00,
    0x00, 0x00, 0x00, 0x00, 0x00, 0x00, 0x00, 0x00, 0x00, 0x00, 0x00, 0x00,
    0x9c, 0x73, 0x00, 0x9c, 0x73, 0x00, 0x9c, 0x73, 0x00, 0x00, 0x00, 0x00,
    0x00, 0x00, 0x00
};
